<?xml version="1.0" encoding="UTF-8" standalone="no"?>
<!-- Created with Inkscape (http://www.inkscape.org/) -->

<svg
   width="296.99997mm"
   height="210mm"
   viewBox="0 0 1122.5196 793.70081"
   version="1.1"
   id="svg1"
   xml:space="preserve"
   xmlns="http://www.w3.org/2000/svg"
   xmlns:svg="http://www.w3.org/2000/svg"><defs
     id="defs1" /><g
     id="layer1"><text
       xml:space="preserve"
       style="font-style:normal;font-variant:normal;font-weight:normal;font-stretch:normal;font-size:159.825px;font-family:'Vujahday Script';-inkscape-font-specification:'Vujahday Script';text-align:start;writing-mode:lr-tb;direction:ltr;text-anchor:start;fill:#ffffff;fill-opacity:1;stroke:none;stroke-width:24.2704;stroke-linecap:round"
       x="-13.276634"
       y="437.72876"
       id="text1"><tspan
         id="tspan1"
         x="-13.276634"
         y="437.72876"
         style="font-size:159.825px;fill:#ffffff;fill-opacity:1;stroke:none;stroke-width:24.2704">Save Your Recipes</tspan></text><g
       id="layer1-8"
       transform="matrix(0.516146,0,0,0.516146,615.19517,230.44801)"
       style="stroke:#ffffff;stroke-opacity:1"><g
         id="g3"
         transform="matrix(0.61111601,0.25438304,-0.25438304,0.61111601,202.23519,-17.029244)"
         style="stroke:#ffffff;stroke-width:15.107;stroke-dasharray:none;stroke-opacity:1"><path
           style="fill:none;stroke:#ffffff;stroke-width:15.107;stroke-linecap:round;stroke-dasharray:none;stroke-dashoffset:0;stroke-opacity:1;paint-order:normal"
           d="m 113.85448,189.8609 c 0,0 42.50154,-40.95039 128.74555,-34.12532 86.244,6.82506 114.47495,34.74578 111.99311,37.22762 -2.48184,2.48185 9.92737,48.08569 -17.06266,62.66651 -26.99003,14.58082 -59.25398,-26.05934 -210.02587,-3.41253 0,0 -9.92737,-11.78876 -13.65013,-62.35628 z"
           id="path11" /><path
           style="fill:none;stroke:#ffffff;stroke-width:15.107;stroke-linecap:round;stroke-dasharray:none;stroke-dashoffset:0;stroke-opacity:1;paint-order:normal"
           d="m 440.54656,135.24158 c 0,0 -25.90871,23.77609 -34.16533,35.81463 -8.25661,12.03853 -26.47812,24.67898 -45.26904,23.17417"
           id="path12" /><path
           style="fill:none;stroke:#ffffff;stroke-width:15.107;stroke-linecap:round;stroke-dasharray:none;stroke-dashoffset:0;stroke-opacity:1;paint-order:normal"
           d="m 392.04277,146.20667 c 0,0 -18.52061,22.54221 -58.76729,27.74427"
           id="path13" /><path
           style="fill:none;stroke:#ffffff;stroke-width:15.107;stroke-linecap:round;stroke-dasharray:none;stroke-dashoffset:0;stroke-opacity:1;paint-order:normal"
           d="m 387.12592,90.008156 c 0,0 -51.62227,11.565914 -61.54964,33.375904 -9.92736,21.81 -14.22922,38.66317 -21.50928,41.30681"
           id="path14" /><path
           style="fill:none;stroke:#ffffff;stroke-width:15.107;stroke-linecap:round;stroke-dasharray:none;stroke-dashoffset:0;stroke-opacity:1;paint-order:normal"
           d="m 264.50189,90.401476 c 0,0 -3.7911,39.238544 -48.14695,63.968694"
           id="path15" /><path
           style="fill:none;stroke:#ffffff;stroke-width:15.107;stroke-linecap:round;stroke-dasharray:none;stroke-dashoffset:0;stroke-opacity:1;paint-order:normal"
           d="m 168.14477,155.42535 c 0,0 -17.68312,-29.7821 10.85806,-54.60052"
           id="path16" /><path
           style="fill:none;stroke:#ffffff;stroke-width:15.107;stroke-linecap:round;stroke-dasharray:none;stroke-dashoffset:0;stroke-opacity:1;paint-order:normal"
           d="m 64.160972,139.54693 c 0,0 26.894146,40.0781 58.436648,42.30467"
           id="path17" /><path
           style="fill:none;stroke:#ffffff;stroke-width:15.107;stroke-linecap:round;stroke-dasharray:none;stroke-dashoffset:0;stroke-opacity:1;paint-order:normal"
           d="m 108.8908,187.06883 c 0,0 -35.676467,-6.2046 -37.537849,-16.4422"
           id="path18" /><path
           style="fill:none;stroke:#ffffff;stroke-width:15.107;stroke-linecap:round;stroke-dasharray:none;stroke-dashoffset:0;stroke-opacity:1;paint-order:normal"
           d="m 115.40564,229.57037 c 0,0 -72.593869,29.47187 -83.141697,-51.80845 0,0 -37.2276265,-45.60384 1.551151,-77.24732 0,0 70.422256,-1.240922 80.349616,-14.891054"
           id="path19" /><path
           style="fill:none;stroke:#ffffff;stroke-width:15.107;stroke-linecap:round;stroke-dasharray:none;stroke-dashoffset:0;stroke-opacity:1;paint-order:normal"
           d="m 98.653204,119.43864 c 0,0 67.630186,-177.761922 141.775216,-76.937094"
           id="path20" /><path
           style="fill:none;stroke:#ffffff;stroke-width:15.107;stroke-linecap:round;stroke-dasharray:none;stroke-dashoffset:0;stroke-opacity:1;paint-order:normal"
           d="m 228.84138,60.913626 c 0,0 62.70024,-96.767825 109.41808,-23.44066"
           id="path21" /><path
           style="fill:none;stroke:#ffffff;stroke-width:15.107;stroke-linecap:round;stroke-dasharray:none;stroke-dashoffset:0;stroke-opacity:1;paint-order:normal"
           d="m 299.06193,55.220976 c 0,0 86.86446,-49.9470622 94.62022,3.72277"
           id="path22" /><path
           style="fill:none;stroke:#ffffff;stroke-width:15.107;stroke-linecap:round;stroke-dasharray:none;stroke-dashoffset:0;stroke-opacity:1;paint-order:normal"
           d="m 364.25513,68.653996 c 0,0 92.6432,-43.04989 109.10593,39.411884 0,0 6.45598,47.29425 -62.62293,59.72415"
           id="path23" /><path
           style="fill:none;stroke:#ffffff;stroke-width:15.107;stroke-linecap:round;stroke-dasharray:none;stroke-dashoffset:0;stroke-opacity:1;paint-order:normal"
           d="m 32.884403,178.38238 c 0,0 25.749109,29.78211 77.867777,13.02967"
           id="path24" /><path
           style="fill:none;stroke:#ffffff;stroke-width:15.107;stroke-linecap:round;stroke-dasharray:none;stroke-dashoffset:0;stroke-opacity:1;paint-order:normal"
           d="m 284.79134,213.12817 c 0,0 33.50486,-1.55115 56.4619,13.3399"
           id="path25" /><path
           style="fill:none;stroke:#ffffff;stroke-width:15.107;stroke-linecap:round;stroke-dasharray:none;stroke-dashoffset:0;stroke-opacity:1;paint-order:normal"
           d="m 165.3527,220.26346 c 0,0 -11.16829,6.51484 -30.09233,8.68645"
           id="path26" /><path
           style="fill:none;stroke:#ffffff;stroke-width:15.107;stroke-linecap:round;stroke-dasharray:none;stroke-dashoffset:0;stroke-opacity:1;paint-order:normal"
           d="m 146.77388,205.33741 c 0,0 -11.61303,5.57228 -26.12932,3.81262"
           id="path27" /></g><g
         id="g33"
         transform="translate(-25.094753,-14.869528)"
         style="stroke:#ffffff;stroke-opacity:1" /></g></g></svg>
